<svg height="512" viewBox="0 0 48 48" width="512" xmlns="http://www.w3.org/2000/svg"><g id="_15._" data-name="15. @"><circle cx="23" cy="24" r="5"/><path d="m24 6a18 18 0 1 0 18 18 18 18 0 0 0 -18-18zm4.75 22a7 7 0 1 1 -.75-8.89 1 1 0 1 1 2-.11v6.5a2.5 2.5 0 0 0 5 0v-1.5a11 11 0 1 0 -3.22 7.78 1 1 0 0 1 1.41 1.41c-8.19 8.17-22.19 2.32-22.19-9.19a13 13 0 0 1 26 0v1.5a4.5 4.5 0 0 1 -8.25 2.5z"/><path d="m24 1a23 23 0 1 0 23 23 23 23 0 0 0 -23-23zm0 43a20 20 0 1 1 20-20 20 20 0 0 1 -20 20z"/></g></svg>