<svg height="512" viewBox="0 0 48 48" width="512" xmlns="http://www.w3.org/2000/svg"><g id="_15._" data-name="15. @"><path d="m24 0a24 24 0 1 0 24 24 24 24 0 0 0 -24-24zm0 46a22 22 0 1 1 22-22 22 22 0 0 1 -22 22z"/><path d="m24 4a20 20 0 1 0 20 20 20 20 0 0 0 -20-20zm0 38a18 18 0 1 1 18-18 18 18 0 0 1 -18 18z"/><path d="m24 11a13 13 0 0 0 -13 13c0 11.51 14 17.36 22.19 9.19a1 1 0 0 0 -1.41-1.41 11 11 0 1 1 3.22-7.78v1.5a2.5 2.5 0 0 1 -5 0v-6.5a1 1 0 1 0 -2 .11 7 7 0 1 0 .75 8.89 4.5 4.5 0 0 0 8.25-2.5v-1.5a13 13 0 0 0 -13-13zm-1 18a5 5 0 1 1 5-5 5 5 0 0 1 -5 5z"/></g></svg>