<svg id="Layer_1" enable-background="new 0 0 512 512" viewBox="0 0 512 512" xmlns="http://www.w3.org/2000/svg"><g id="Layer_2_00000029733872439436344270000015344154424025836459_"><g id="Layer_2_copy_3"><g id="_47"><g id="_5"><path d="m308.8 30.2-34.7-24c-10.9-7.3-25.2-7.3-36.2-.1l-35.1 24z"/><path d="m497.5 160.4-64.7-44.6v106.3l34.6-24c6.4-5.2 14.5-8 22.7-8 7.9 0 15.6 2.5 22 7.2v-9.7c-.1-10.9-5.5-21.1-14.6-27.2z"/><path d="m79.2 114.9-64.6 44.3c-9.1 6-14.6 16.2-14.6 27.2v10.9c6.4-4.7 14.1-7.3 22-7.2 8.3 0 16.3 2.8 22.7 8l34.6 24z"/><path d="m476.3 210-189.3 131.7-12.8-7.5c-11.2-6.6-25.1-6.6-36.4 0l-12.9 7.5-189.2-131.7c-14.3-11.6-35.7-1.5-35.7 16.9v229.3c0 28.6 22 52.5 50.5 54.8h.1c.7 0 1.4.1 2.1.1h1.3 1 402.1 1 1.3c.7 0 1.4-.1 2.1-.1h.1c28.5-2.3 50.5-26.1 50.5-54.8v-229.3c-.1-18.4-21.5-28.5-35.8-16.9z"/><path d="m387.6 45.2h-263.2c-16.6 0-30.1 13.5-30.1 30.1v157.1l131.5 91.4 4.5-2.6c15.9-9.4 35.6-9.4 51.6 0l4.5 2.6 131.5-91.4v-157.1c-.1-16.6-13.6-30.1-30.3-30.1zm-40.5 137.3c-2.5 14.1-8.2 27-16 38.9-10.4 16.1-23.6 29.4-38.5 41.2-8.7 6.9-17.8 13.3-27.3 19.1-5.9 3.7-12.1 4-18 .4-16.6-10.1-32.1-21.6-45.9-35.4-10.1-10-18.8-21.3-25.6-33.8-7.6-13.9-12.2-28.7-12.2-44.7-.1-10.7 3.2-21.1 9.6-29.6 6.1-8.5 14.7-14.8 24.6-18.1 12.7-4.5 26.8-3.4 38.6 3.2 7 3.8 13.4 8.6 18.9 14.3l.6.6c3.3-2.8 6.5-5.7 9.8-8.3 7.6-5.9 16-10.4 25.7-11.8 26.1-3.6 50.6 13.5 56.1 39.3 1.7 8.2 1.1 16.5-.4 24.7z"/></g></g></g></g></svg>