<?xml version="1.0" encoding="UTF-8" standalone="no"?>
<!-- Created with Inkscape (http://www.inkscape.org/) -->

<svg
   version="1.1"
   id="svg1797"
   xml:space="preserve"
   width="682.66669"
   height="682.66669"
   viewBox="0 0 682.66669 682.66669"
   xmlns="http://www.w3.org/2000/svg"
   xmlns:svg="http://www.w3.org/2000/svg"><defs
     id="defs1801"><clipPath
       clipPathUnits="userSpaceOnUse"
       id="clipPath1811"><path
         d="M 0,512 H 512 V 0 H 0 Z"
         id="path1809" /></clipPath></defs><g
     id="g1803"
     transform="matrix(1.3333333,0,0,-1.3333333,0,682.66667)"><g
       id="g1805"><g
         id="g1807"
         clip-path="url(#clipPath1811)"><g
           id="g1813"
           transform="translate(30.9805,126.8398)"><path
             d="m 0,0 c -2.83,80.07 -0.351,160.13 7.439,240.18 43.84,2.88 87.68,4.88 131.531,5.99"
             style="fill:none;stroke:#000000;stroke-width:15;stroke-linecap:round;stroke-linejoin:round;stroke-miterlimit:10;stroke-dasharray:none;stroke-opacity:1"
             id="path1815" /></g><g
           id="g1817"
           transform="translate(240.1504,374.04)"><path
             d="m 0,0 c 75.68,0.3 151.359,-2.04 227.05,-7.02 11.429,-117.48 11.429,-234.97 0,-352.47 -142.931,-9.4 -285.851,-9.4 -428.78,0 -2.68,27.51 -4.73,55.03 -6.14,82.54"
             style="fill:none;stroke:#000000;stroke-width:15;stroke-linecap:round;stroke-linejoin:round;stroke-miterlimit:10;stroke-dasharray:none;stroke-opacity:1"
             id="path1819" /></g><g
           id="g1821"
           transform="translate(177.5537,280.0903)"><path
             d="m 0,0 c 9.094,-16.685 -1.359,-44.076 -25.701,-44.076 -24.343,0 -44.076,19.734 -44.076,44.076 0,24.343 19.733,44.076 44.076,44.076 24.342,0 44.075,-19.733 44.075,-44.076"
             style="fill:none;stroke:#000000;stroke-width:15;stroke-linecap:round;stroke-linejoin:round;stroke-miterlimit:10;stroke-dasharray:none;stroke-opacity:1"
             id="path1823" /></g><g
           id="g1825"
           transform="translate(151.8525,236.0142)"><path
             d="M 0,0 V -82.868"
             style="fill:none;stroke:#000000;stroke-width:15;stroke-linecap:round;stroke-linejoin:round;stroke-miterlimit:10;stroke-dasharray:none;stroke-opacity:1"
             id="path1827" /></g><g
           id="g1829"
           transform="translate(195.7588,60.3657)"><path
             d="M 0,0 -43.906,92.781 -87.813,0"
             style="fill:none;stroke:#000000;stroke-width:15;stroke-linecap:round;stroke-linejoin:round;stroke-miterlimit:10;stroke-dasharray:none;stroke-opacity:1"
             id="path1831" /></g><g
           id="g1833"
           transform="translate(219.6729,166.6455)"><path
             d="M 0,0 -67.317,41.941 -127.049,9.749"
             style="fill:none;stroke:#000000;stroke-width:15;stroke-linecap:round;stroke-linejoin:round;stroke-miterlimit:10;stroke-dasharray:none;stroke-opacity:1"
             id="path1835" /></g><g
           id="g1837"
           transform="translate(291.2119,233.7295)"><path
             d="m 0,0 c 13.583,-1.059 25.957,-18.053 16.438,-32.683 -9.519,-14.629 -29.096,-18.772 -43.725,-9.252 -14.63,9.519 -18.773,29.096 -9.253,43.725 9.519,14.63 31.602,22.623 46.23,13.103"
             style="fill:none;stroke:#000000;stroke-width:15;stroke-linecap:round;stroke-linejoin:round;stroke-miterlimit:10;stroke-dasharray:none;stroke-opacity:1"
             id="path1839" /></g><g
           id="g1841"
           transform="translate(280.1172,186.3086)"><path
             d="M 0,0 V -59.417"
             style="fill:none;stroke:#000000;stroke-width:15;stroke-linecap:round;stroke-linejoin:round;stroke-miterlimit:10;stroke-dasharray:none;stroke-opacity:1"
             id="path1843" /></g><g
           id="g1845"
           transform="translate(311.5986,60.3657)"><path
             d="M 0,0 -31.481,66.525 -62.964,0"
             style="fill:none;stroke:#000000;stroke-width:15;stroke-linecap:round;stroke-linejoin:round;stroke-miterlimit:10;stroke-dasharray:none;stroke-opacity:1"
             id="path1847" /></g><g
           id="g1849"
           transform="translate(328.7451,136.5698)"><path
             d="m 0,0 -48.268,30.072 -60.804,0.004"
             style="fill:none;stroke:#000000;stroke-width:15;stroke-linecap:round;stroke-linejoin:round;stroke-miterlimit:10;stroke-dasharray:none;stroke-opacity:1"
             id="path1851" /></g><g
           id="g1853"
           transform="translate(439.5352,283.5874)"><path
             d="m 0,0 c 0,-22.411 -18.168,-40.579 -40.579,-40.579 -22.411,0 -40.579,18.168 -40.579,40.579 0,22.411 18.168,40.579 40.579,40.579 C -18.168,40.579 0,22.411 0,0 Z"
             style="fill:none;stroke:#000000;stroke-width:15;stroke-linecap:round;stroke-linejoin:round;stroke-miterlimit:10;stroke-dasharray:none;stroke-opacity:1"
             id="path1855" /></g><g
           id="g1857"
           transform="translate(341.377,324.1665)"><path
             d="M 0,0 -29.778,9.757"
             style="fill:none;stroke:#000000;stroke-width:15;stroke-linecap:round;stroke-linejoin:round;stroke-miterlimit:10;stroke-dasharray:none;stroke-opacity:1"
             id="path1859" /></g><g
           id="g1861"
           transform="translate(328.7451,280.0903)"><path
             d="M 0,0 H -21.972"
             style="fill:none;stroke:#000000;stroke-width:15;stroke-linecap:round;stroke-linejoin:round;stroke-miterlimit:10;stroke-dasharray:none;stroke-opacity:1"
             id="path1863" /></g><g
           id="g1865"
           transform="translate(364.3506,222.5142)"><path
             d="M 0,0 -12.967,-27.934"
             style="fill:none;stroke:#000000;stroke-width:15;stroke-linecap:round;stroke-linejoin:round;stroke-miterlimit:10;stroke-dasharray:none;stroke-opacity:1"
             id="path1867" /></g><g
           id="g1869"
           transform="translate(422.4844,222.5142)"><path
             d="M 0,0 5.828,-34.898"
             style="fill:none;stroke:#000000;stroke-width:15;stroke-linecap:round;stroke-linejoin:round;stroke-miterlimit:10;stroke-dasharray:none;stroke-opacity:1"
             id="path1871" /></g><g
           id="g1873"
           transform="translate(132.2539,284.4814)"><path
             d="M 0,0 V -0.459"
             style="fill:none;stroke:#000000;stroke-width:15;stroke-linecap:round;stroke-linejoin:round;stroke-miterlimit:10;stroke-dasharray:none;stroke-opacity:1"
             id="path1875" /></g><g
           id="g1877"
           transform="translate(151.8525,293.1284)"><path
             d="M 0,0 V -0.459"
             style="fill:none;stroke:#000000;stroke-width:15;stroke-linecap:round;stroke-linejoin:round;stroke-miterlimit:10;stroke-dasharray:none;stroke-opacity:1"
             id="path1879" /></g><g
           id="g1881"
           transform="translate(269.8721,217.2676)"><path
             d="M 0,0 -0.258,-0.38"
             style="fill:none;stroke:#000000;stroke-width:15;stroke-linecap:round;stroke-linejoin:round;stroke-miterlimit:10;stroke-dasharray:none;stroke-opacity:1"
             id="path1883" /></g><g
           id="g1885"
           transform="translate(290.9482,213.438)"><path
             d="M 0,0 -0.258,-0.38"
             style="fill:none;stroke:#000000;stroke-width:15;stroke-linecap:round;stroke-linejoin:round;stroke-miterlimit:10;stroke-dasharray:none;stroke-opacity:1"
             id="path1887" /></g><g
           id="g1889"
           transform="translate(57.0732,76.9121)"><path
             d="M 0,0 V -12.821"
             style="fill:none;stroke:#000000;stroke-width:15;stroke-linecap:round;stroke-linejoin:round;stroke-miterlimit:10;stroke-dasharray:none;stroke-opacity:1"
             id="path1891" /></g><g
           id="g1893"
           transform="translate(76.8877,76.9121)"><path
             d="M 0,0 V -12.821"
             style="fill:none;stroke:#000000;stroke-width:15;stroke-linecap:round;stroke-linejoin:round;stroke-miterlimit:10;stroke-dasharray:none;stroke-opacity:1"
             id="path1895" /></g><g
           id="g1897"
           transform="translate(341.4766,76.9121)"><path
             d="M 0,0 V -12.821"
             style="fill:none;stroke:#000000;stroke-width:15;stroke-linecap:round;stroke-linejoin:round;stroke-miterlimit:10;stroke-dasharray:none;stroke-opacity:1"
             id="path1899" /></g><g
           id="g1901"
           transform="translate(361.291,76.9121)"><path
             d="M 0,0 V -12.821"
             style="fill:none;stroke:#000000;stroke-width:15;stroke-linecap:round;stroke-linejoin:round;stroke-miterlimit:10;stroke-dasharray:none;stroke-opacity:1"
             id="path1903" /></g><g
           id="g1905"
           transform="translate(402.6699,76.9121)"><path
             d="M 0,0 V -12.821"
             style="fill:none;stroke:#000000;stroke-width:15;stroke-linecap:round;stroke-linejoin:round;stroke-miterlimit:10;stroke-dasharray:none;stroke-opacity:1"
             id="path1907" /></g><g
           id="g1909"
           transform="translate(422.4844,76.9121)"><path
             d="M 0,0 V -12.821"
             style="fill:none;stroke:#000000;stroke-width:15;stroke-linecap:round;stroke-linejoin:round;stroke-miterlimit:10;stroke-dasharray:none;stroke-opacity:1"
             id="path1911" /></g><g
           id="g1913"
           transform="translate(445.7959,76.9121)"><path
             d="M 0,0 V -12.821"
             style="fill:none;stroke:#000000;stroke-width:15;stroke-linecap:round;stroke-linejoin:round;stroke-miterlimit:10;stroke-dasharray:none;stroke-opacity:1"
             id="path1915" /></g><g
           id="g1917"
           transform="translate(412.3701,485.0698)"><path
             d="M 0,0 C 15.22,6.65 30.51,13.12 45.89,19.43 57.32,3.24 65.29,-14.51 69.78,-33.82 27.08,-54.68 -16.271,-74.13 -60.25,-92.16 l -23.89,53.25 c 18.81,9.2 37.75,18.11 56.81,26.75"
             style="fill:none;stroke:#000000;stroke-width:15;stroke-linecap:round;stroke-linejoin:round;stroke-miterlimit:10;stroke-dasharray:none;stroke-opacity:1"
             id="path1919" /></g><g
           id="g1921"
           transform="translate(352.1211,392.9141)"><path
             d="m 0,0 c 0,0 -23.263,-6.612 -46.447,11.144 2.151,29.123 22.557,42.103 22.557,42.103"
             style="fill:none;stroke:#000000;stroke-width:15;stroke-linecap:round;stroke-linejoin:round;stroke-miterlimit:10;stroke-dasharray:none;stroke-opacity:1"
             id="path1923" /></g><g
           id="g1925"
           transform="translate(305.6738,404.0581)"><path
             d="M 0,0 -5.368,-2.409"
             style="fill:none;stroke:#000000;stroke-width:15;stroke-linecap:round;stroke-linejoin:round;stroke-miterlimit:10;stroke-dasharray:none;stroke-opacity:1"
             id="path1927" /></g><g
           id="g1929"
           transform="translate(191.0059,353.0137)"><path
             d="m 0,0 c -34.692,32.492 -68.284,66.084 -100.775,100.776 11.068,16.443 24.823,30.198 41.266,41.267 C -24.816,109.551 8.775,75.959 41.267,41.267 Z"
             style="fill:none;stroke:#000000;stroke-width:15;stroke-linecap:round;stroke-linejoin:round;stroke-miterlimit:10;stroke-dasharray:none;stroke-opacity:1"
             id="path1931" /></g><g
           id="g1933"
           transform="translate(232.2734,394.2808)"><path
             d="m 0,0 c 0,0 14.454,-19.389 6.105,-47.373 -27.984,-8.348 -47.373,6.106 -47.373,6.106"
             style="fill:none;stroke:#000000;stroke-width:15;stroke-linecap:round;stroke-linejoin:round;stroke-miterlimit:10;stroke-dasharray:none;stroke-opacity:1"
             id="path1935" /></g><g
           id="g1937"
           transform="translate(238.3789,346.9082)"><path
             d="M 0,0 4.161,-4.161"
             style="fill:none;stroke:#000000;stroke-width:15;stroke-linecap:round;stroke-linejoin:round;stroke-miterlimit:10;stroke-dasharray:none;stroke-opacity:1"
             id="path1939" /></g></g></g></g></svg>
