<svg fill="none" height="24" viewBox="0 0 24 24" width="24" xmlns="http://www.w3.org/2000/svg"><g clip-rule="evenodd" fill="rgb(0,0,0)" fill-rule="evenodd"><path d="m8.37738 6.50042c0-2.07107 1.67892-3.74999 3.75002-3.74999h5.372c2.0711 0 3.75 1.67893 3.75 3.75v5.37207c0 2.071-1.6789 3.75-3.75 3.75-.2082 0-.3769-.1688-.3769-.377v-3.1171c0-2.89953-2.3505-5.25004-5.25-5.25004h-3.11719c-.20872 0-.37793-.16921-.37793-.37794z"/><path d="m6.50043 8.37836c-2.07107 0-3.75 1.67894-3.75 3.75004v5.372c0 2.0711 1.67892 3.75 3.74999 3.75h5.37208c2.071 0 3.75-1.6789 3.75-3.75v-5.372c0-2.0711-1.679-3.75004-3.75-3.75004zm6.27957 4.12714c0 .7066-.5728 1.2794-1.2794 1.2794s-1.2795-.5728-1.2795-1.2794c0-.7067.5729-1.2795 1.2795-1.2795s1.2794.5728 1.2794 1.2795zm-7.74615.3028c-.40355-.0934-.80641.158-.89984.5615-.09342.4036.15797.8065.56151.8999 2.61574.6056 4.65795 2.5559 5.30568 5.008.1057.4005.5161.6394.9166.5336s.6394-.5162.5336-.9167c-.7968-3.0167-3.28751-5.3616-6.41755-6.0863z"/><path d="m6.53076 1.96961c-.2929-.29289-.76777-.29289-1.06066 0-.2929.29289-.2929.76777 0 1.06066l.21967.21967h-.68934c-1.51879 0-2.75 1.23122-2.75 2.75v1c0 .41421.33578.75.75.75.41421 0 .75-.33579.75-.75v-1c0-.69036.55964-1.25 1.25-1.25h.68934l-.21967.21967c-.2929.29289-.2929.76777 0 1.06066.29289.29289.76776.29289 1.06066 0l.79289-.79289c.68342-.68342.68342-1.79146 0-2.47488z"/><path d="m19.5004 19.7499c1.5188 0 2.75-1.2312 2.75-2.75v-1c0-.4142-.3358-.75-.75-.75s-.75.3358-.75.75v1c0 .6904-.5596 1.25-1.25 1.25h-.6893l.2196-.2196c.2929-.2929.2929-.7678 0-1.0607s-.7677-.2929-1.0606 0l-.7929.7929c-.6834.6834-.6834 1.7915 0 2.4749l.7929.7929c.2929.2929.7677.2929 1.0606 0s.2929-.7678 0-1.0607l-.2196-.2197z"/></g></svg>