<?xml version="1.0" encoding="UTF-8" standalone="no"?>
<!-- Created with Inkscape (http://www.inkscape.org/) -->

<svg
   version="1.1"
   id="svg753"
   xml:space="preserve"
   width="682.66669"
   height="682.66669"
   viewBox="0 0 682.66669 682.66669"
   xmlns="http://www.w3.org/2000/svg"
   xmlns:svg="http://www.w3.org/2000/svg"><defs
     id="defs757"><clipPath
       clipPathUnits="userSpaceOnUse"
       id="clipPath767"><path
         d="M 0,512 H 512 V 0 H 0 Z"
         id="path765" /></clipPath></defs><g
     id="g759"
     transform="matrix(1.3333333,0,0,-1.3333333,0,682.66667)"><g
       id="g761"><g
         id="g763"
         clip-path="url(#clipPath767)"><g
           id="g769"
           transform="translate(368.0898,251.3701)"><path
             d="m 0,0 c 32.44,12.76 52.74,37.68 52.74,86.07 0,92.27 -73.8,167.06 -164.83,167.06 -91.03,0 -164.83,-74.79 -164.83,-167.06 0,-48.7 20.56,-73.63 53.37,-86.32"
             style="fill:none;stroke:#000000;stroke-width:15;stroke-linecap:round;stroke-linejoin:round;stroke-miterlimit:10;stroke-dasharray:none;stroke-opacity:1"
             id="path771" /></g><g
           id="g773"
           transform="translate(232.0386,273.8203)"><path
             d="m 0,0 c 4.299,-9.059 13.534,-15.317 24.219,-15.317 10.684,0 19.919,6.258 24.218,15.317"
             style="fill:none;stroke:#000000;stroke-width:15;stroke-linecap:round;stroke-linejoin:round;stroke-miterlimit:10;stroke-dasharray:none;stroke-opacity:1"
             id="path775" /></g><g
           id="g777"
           transform="translate(211.6724,317.3892)"><path
             d="m 0,0 c 0,-8.722 -4.714,-15.793 -10.529,-15.793 -5.814,0 -10.529,7.071 -10.529,15.793 0,8.722 4.715,15.793 10.529,15.793 C -4.714,15.793 0,8.722 0,0"
             style="fill:#000000;fill-opacity:1;fill-rule:nonzero;stroke:none"
             id="path779" /></g><g
           id="g781"
           transform="translate(211.6724,317.3892)"><path
             d="m 0,0 c 0,-8.722 -4.714,-15.793 -10.529,-15.793 -5.814,0 -10.529,7.071 -10.529,15.793 0,8.722 4.715,15.793 10.529,15.793 C -4.714,15.793 0,8.722 0,0 Z"
             style="fill:none;stroke:#000000;stroke-width:0.5;stroke-linecap:butt;stroke-linejoin:miter;stroke-miterlimit:10;stroke-dasharray:none;stroke-opacity:1"
             id="path783" /></g><g
           id="g785"
           transform="translate(321.8999,317.3892)"><path
             d="m 0,0 c 0,-8.722 -4.714,-15.793 -10.529,-15.793 -5.815,0 -10.529,7.071 -10.529,15.793 0,8.722 4.714,15.793 10.529,15.793 C -4.714,15.793 0,8.722 0,0"
             style="fill:#000000;fill-opacity:1;fill-rule:nonzero;stroke:none"
             id="path787" /></g><g
           id="g789"
           transform="translate(321.8999,317.3892)"><path
             d="m 0,0 c 0,-8.722 -4.714,-15.793 -10.529,-15.793 -5.815,0 -10.529,7.071 -10.529,15.793 0,8.722 4.714,15.793 10.529,15.793 C -4.714,15.793 0,8.722 0,0 Z"
             style="fill:none;stroke:#000000;stroke-width:0.5;stroke-linecap:butt;stroke-linejoin:miter;stroke-miterlimit:10;stroke-dasharray:none;stroke-opacity:1"
             id="path791" /></g><g
           id="g793"
           transform="translate(362.96,242.3999)"><path
             d="m 0,0 c 6.65,9.75 10.76,21.36 11.41,33.93 0.19,3.74 0.36,7.48 0.5,11.22"
             style="fill:none;stroke:#000000;stroke-width:15;stroke-linecap:round;stroke-linejoin:round;stroke-miterlimit:10;stroke-dasharray:none;stroke-opacity:1"
             id="path795" /></g><g
           id="g797"
           transform="translate(373.3398,374.6899)"><path
             d="M 0,0 C 0,0 0,-0.01 0.01,-0.02 1.38,-19.1 2.07,-38.17 2.08,-57.25"
             style="fill:none;stroke:#000000;stroke-width:15;stroke-linecap:round;stroke-linejoin:round;stroke-miterlimit:10;stroke-dasharray:none;stroke-opacity:1"
             id="path799" /></g><g
           id="g801"
           transform="translate(139.1802,374.8401)"><path
             d="m 0,0 c -2.37,-32.84 -2.72,-65.68 -1.03,-98.51 0.64,-12.62 4.79,-24.28 11.49,-34.05"
             style="fill:none;stroke:#000000;stroke-width:15;stroke-linecap:round;stroke-linejoin:round;stroke-miterlimit:10;stroke-dasharray:none;stroke-opacity:1"
             id="path803" /></g><g
           id="g805"
           transform="translate(374.6802,385.675)"><path
             d="M 0,0 C 0,-4.063 -0.383,-8.066 -1.141,-11.977 -9.144,29.711 -58.596,61.8 -118.423,61.8 c -6.479,0 -12.827,-0.366 -19.004,-1.105 -15.148,-1.762 -29.328,-5.604 -41.963,-11.101 -29.954,-13.045 -51.289,-35.413 -56.325,-61.541 -0.747,3.904 -1.131,7.891 -1.131,11.947 0,31.19 23.031,58.491 57.456,73.472 12.645,5.505 26.825,9.347 41.963,11.108 6.177,0.74 12.525,1.106 19.004,1.106 C -53.015,85.686 0,47.322 0,0 Z"
             style="fill:none;stroke:#000000;stroke-width:15;stroke-linecap:round;stroke-linejoin:round;stroke-miterlimit:10;stroke-dasharray:none;stroke-opacity:1"
             id="path807" /></g><g
           id="g809"
           transform="translate(301.9326,298.2805)"><path
             d="M 0,0 C 0,0 11.311,6.631 28.524,3.315"
             style="fill:none;stroke:#000000;stroke-width:15;stroke-linecap:round;stroke-linejoin:round;stroke-miterlimit:10;stroke-dasharray:none;stroke-opacity:1"
             id="path811" /></g><g
           id="g813"
           transform="translate(210.582,298.2805)"><path
             d="M 0,0 C 0,0 -11.311,6.631 -28.523,3.315"
             style="fill:none;stroke:#000000;stroke-width:15;stroke-linecap:round;stroke-linejoin:round;stroke-miterlimit:10;stroke-dasharray:none;stroke-opacity:1"
             id="path815" /></g><g
           id="g817"
           transform="translate(297.1377,442.2283)"><path
             d="m 0,0 c -19.641,-33.684 -66.733,-77.965 -85.465,-67.388 -6.861,3.874 -5.964,11.878 -2.073,20.468 0,0 -37.255,-65.652 -71.765,-43.914"
             style="fill:none;stroke:#000000;stroke-width:15;stroke-linecap:round;stroke-linejoin:round;stroke-miterlimit:10;stroke-dasharray:none;stroke-opacity:1"
             id="path819" /></g><g
           id="g821"
           transform="translate(67.6299,210.3899)"><path
             d="M 0,0 V 21.16 C 0,35.81 13.54,46.73 27.86,43.62 L 168.27,13.19 h 40.2 l 140.41,30.43 c 14.32,3.11 27.86,-7.81 27.86,-22.46 V 0"
             style="fill:none;stroke:#000000;stroke-width:15;stroke-linecap:round;stroke-linejoin:round;stroke-miterlimit:10;stroke-dasharray:none;stroke-opacity:1"
             id="path823" /></g><g
           id="g825"
           transform="translate(444.3701,150.28)"><path
             d="m 0,0 v -87.77 c 0,-10.82 -7.55,-20.18 -18.12,-22.47 l -150.15,-32.54 h -40.2 l -150.15,32.54 c -10.57,2.29 -18.12,11.65 -18.12,22.47 V 0"
             style="fill:none;stroke:#000000;stroke-width:15;stroke-linecap:round;stroke-linejoin:round;stroke-miterlimit:10;stroke-dasharray:none;stroke-opacity:1"
             id="path827" /></g><g
           id="g829"
           transform="translate(276.0981,223.5815)"><path
             d="M 0,0 V -216.082"
             style="fill:none;stroke:#000000;stroke-width:15;stroke-linecap:round;stroke-linejoin:round;stroke-miterlimit:10;stroke-dasharray:none;stroke-opacity:1"
             id="path831" /></g><g
           id="g833"
           transform="translate(235.8999,7.5)"><path
             d="M 0,0 V 132.55"
             style="fill:none;stroke:#000000;stroke-width:15;stroke-linecap:round;stroke-linejoin:round;stroke-miterlimit:10;stroke-dasharray:none;stroke-opacity:1"
             id="path835" /></g><g
           id="g837"
           transform="translate(235.8999,170.05)"><path
             d="M 0,0 V 53.53"
             style="fill:none;stroke:#000000;stroke-width:15;stroke-linecap:round;stroke-linejoin:round;stroke-miterlimit:10;stroke-dasharray:none;stroke-opacity:1"
             id="path839" /></g><g
           id="g841"
           transform="translate(409.8501,191.9199)"><path
             d="M 0,0 -83.05,-18"
             style="fill:none;stroke:#000000;stroke-width:15;stroke-linecap:round;stroke-linejoin:round;stroke-miterlimit:10;stroke-dasharray:none;stroke-opacity:1"
             id="path843" /></g><g
           id="g845"
           transform="translate(409.8501,164.05)"><path
             d="M 0,0 -83.05,-18"
             style="fill:none;stroke:#000000;stroke-width:15;stroke-linecap:round;stroke-linejoin:round;stroke-miterlimit:10;stroke-dasharray:none;stroke-opacity:1"
             id="path847" /></g><g
           id="g849"
           transform="translate(63.5044,149.8738)"><path
             d="M 0,0 H -7.864 C -19.476,0 -28.89,9.414 -28.89,21.026 V 39.9 c 0,11.612 9.414,21.026 21.026,21.026 H 0 c 11.612,0 21.026,-9.414 21.026,-21.026 V 21.026 C 21.026,9.414 11.612,0 0,0 Z"
             style="fill:none;stroke:#000000;stroke-width:15;stroke-linecap:round;stroke-linejoin:round;stroke-miterlimit:10;stroke-dasharray:none;stroke-opacity:1"
             id="path851" /></g><g
           id="g853"
           transform="translate(456.3594,149.8738)"><path
             d="M 0,0 H -7.864 C -19.476,0 -28.89,9.414 -28.89,21.026 V 39.9 c 0,11.612 9.414,21.026 21.026,21.026 H 0 c 11.612,0 21.026,-9.414 21.026,-21.026 V 21.026 C 21.026,9.414 11.612,0 0,0 Z"
             style="fill:none;stroke:#000000;stroke-width:15;stroke-linecap:round;stroke-linejoin:round;stroke-miterlimit:10;stroke-dasharray:none;stroke-opacity:1"
             id="path855" /></g></g></g></g></svg>
