<svg id="Solid" height="512" viewBox="0 0 128 128" width="512" xmlns="http://www.w3.org/2000/svg"><path d="m65.842 65.933a1.5 1.5 0 0 1 -1.265-.693 1.267 1.267 0 0 0 -1.154 0 1.5 1.5 0 0 1 -2.765-.807c0-1.917 2.679-2.332 3.342-2.332s3.342.415 3.342 2.332a1.5 1.5 0 0 1 -1.5 1.5z"/><path d="m76 57.852a1.5 1.5 0 0 1 -1.038-2.583c2.921-2.8 7.533-2.72 10.578-1.2a1.5 1.5 0 1 1 -1.34 2.687c-1.638-.82-5.032-1.361-7.159.679a1.5 1.5 0 0 1 -1.041.417z"/><circle cx="79.071" cy="58.844" r="3.429"/><path d="m52 57.852a1.5 1.5 0 0 1 -1.038-.417c-2.128-2.04-5.521-1.5-7.159-.679a1.5 1.5 0 1 1 -1.343-2.682c3.046-1.525 7.658-1.6 10.578 1.2a1.5 1.5 0 0 1 -1.038 2.578z"/><circle cx="48.929" cy="58.844" r="3.429"/><path d="m54.5 50.834a1.478 1.478 0 0 1 -.546-.1c-4.223-1.651-6.683-1.456-11.15-1.1l-.436.035a1.5 1.5 0 1 1 -.236-2.991l.436-.034c4.586-.364 7.616-.6 12.478 1.3a1.5 1.5 0 0 1 -.546 2.9z"/><path d="m64 80.112c-3.928 0-6.023-2.941-6.675-5.693a3.669 3.669 0 0 1 .624-3.141 2.771 2.771 0 0 1 2.163-1.087h7.776a2.771 2.771 0 0 1 2.163 1.087 3.666 3.666 0 0 1 .626 3.134c-.654 2.759-2.749 5.7-6.677 5.7zm-3.731-6.921a.843.843 0 0 0 -.023.545c.186.786 1.012 3.376 3.754 3.376s3.568-2.59 3.756-3.384a.818.818 0 0 0 -.025-.537z"/><path d="m102.777 59.642c1.46-9.624.374-27.157-4.531-35.332a.183.183 0 0 1 .026-.217 3.376 3.376 0 0 0 .669-1.109 4.178 4.178 0 0 0 -.358-3.34c-5.272-10.691-22.097-14.824-27.133-15.836-8.605-1.7-18.8-1.1-25.519 4.385a.49.49 0 0 1 -.771-.193 4.1 4.1 0 0 0 -1.813-2.089 4.24 4.24 0 0 0 -4.363-.069c-1.81 1.058-2.912 3.358-3.448 5.364a.46.46 0 0 1 -.374.345c-2.732.463-7.212 1.68-7.784 4.725a4.018 4.018 0 0 0 1.115 4.013 4.466 4.466 0 0 0 1.939.959.491.491 0 0 1 .274.788c-4.261 5.343-8.857 14.454-7.8 18.731a3.448 3.448 0 0 0 1.619 2.263.491.491 0 0 1 .268.439c-.076 3.215-.156 10.132.341 16.274-2.763 2.793-2.481 7.361-.922 10.657a11.843 11.843 0 0 0 6.588 5.808 8.928 8.928 0 0 0 2.9.507 7.181 7.181 0 0 0 1.7-.21 28.494 28.494 0 0 0 5.686 9.133c3.364 3.545 8.464 6.426 15.183 8.6a8.141 8.141 0 0 1 -3.42 5.8 2.775 2.775 0 0 0 -2-.079c-.065.021-2.409 1.167-2.409 1.167a3.448 3.448 0 0 0 -.747-.672 3.508 3.508 0 0 0 -2.931-.4c-3.025.926-8.626 3.069-12.156 7.025a3.5 3.5 0 0 0 -.318 4.219l.49.762a30.913 30.913 0 0 0 -5.8 10.314 3.612 3.612 0 0 0 -.124 2.006 3.524 3.524 0 0 0 3.417 2.688h67.322a3.664 3.664 0 0 0 2.69-1.1 3.44 3.44 0 0 0 .781-3.48 31.378 31.378 0 0 0 -5.812-10.474l.462-.72a3.5 3.5 0 0 0 -.317-4.218c-3.531-3.956-9.132-6.1-12.157-7.025a3.511 3.511 0 0 0 -2.931.4 3.448 3.448 0 0 0 -.747.672s-2.344-1.146-2.409-1.167a2.774 2.774 0 0 0 -2.016.087 8.165 8.165 0 0 1 -3.4-5.809c6.718-2.17 11.819-5.051 15.182-8.6a28.473 28.473 0 0 0 5.676-9.122 7.378 7.378 0 0 0 1.713.2 8.928 8.928 0 0 0 2.895-.507 11.843 11.843 0 0 0 6.591-5.808c1.576-3.332 1.851-7.972-1.017-10.755zm-71 13.729a8.835 8.835 0 0 1 -4.853-4.253c-1.222-2.585-1.354-6.038.758-7.637a6.062 6.062 0 0 1 4.307-.781c.095 1 .207 2.027.341 3.073a6.391 6.391 0 0 0 -2.5-.361 1.492 1.492 0 0 0 -1.334 1.622 1.514 1.514 0 0 0 1.611 1.366 3.576 3.576 0 0 1 2.848 1.38 51.022 51.022 0 0 0 1.436 5.872 5.573 5.573 0 0 1 -2.619-.281zm12.3 50.692-9.268-14.393a.5.5 0 0 1 .032-.6c3.046-3.412 8.073-5.321 10.8-6.154a.507.507 0 0 1 .43.058.48.48 0 0 1 .223.352l2.746 20.736zm5.323-20.189a6.523 6.523 0 0 1 2.379-1.045c.093 0 .252.178.56.525 2.037 2.3 3.688 4.158 5.516 6.519a1 1 0 0 1 -.118 1.347 52.419 52.419 0 0 1 -4.209 3.452 1 1 0 0 1 -1.287-.16 12.739 12.739 0 0 1 -1.8-2.8zm32.317-.547a.48.48 0 0 1 .223-.352.5.5 0 0 1 .43-.058c2.725.833 7.752 2.742 10.8 6.154a.5.5 0 0 1 .032.6l-9.259 14.393h-4.97zm-6.038.027c.308-.347.467-.521.56-.525a6.529 6.529 0 0 1 2.379 1.046l-1.038 7.84a12.589 12.589 0 0 1 -1.8 2.8 1 1 0 0 1 -1.287.16 52.419 52.419 0 0 1 -4.209-3.452 1 1 0 0 1 -.118-1.347c1.816-2.364 3.467-4.225 5.504-6.522zm-2.845-1.313c-1.98 2.236-3.725 4.241-5.662 6.805a3.085 3.085 0 0 0 -.409 2.709.484.484 0 0 1 -.055.411 33.824 33.824 0 0 0 -2.254 3.866.5.5 0 0 1 -.89 0 33.824 33.824 0 0 0 -2.254-3.866.484.484 0 0 1 -.055-.411 3.085 3.085 0 0 0 -.409-2.709c-1.939-2.567-3.686-4.573-5.668-6.812a10.882 10.882 0 0 0 4-6.934c.384.105.767.211 1.16.312a14.758 14.758 0 0 0 7.343 0c.4-.1.782-.208 1.168-.315a10.909 10.909 0 0 0 3.976 6.944zm11.906-18.468c-3.616 3.812-9.607 6.817-17.8 8.931a11.791 11.791 0 0 1 -5.871 0c-8.2-2.114-14.189-5.119-17.8-8.931-6.171-6.5-8.084-16.389-8.388-24.238-.184-4.763 1.926-7.608 4.527-11.526a50.556 50.556 0 0 0 8.566-19.926 1.592 1.592 0 0 1 .986-1.183c4.083-1.481 5.964 2.426 8.579 9.03.534 1.35 1.086 2.745 1.671 4.006 3.96 8.539 12.655 13.49 25.842 14.714a5.423 5.423 0 0 0 3.7-.837.187.187 0 0 1 .284.059 35.09 35.09 0 0 0 4.041 6.228c-.707 7.728-2.312 17.322-8.337 23.673zm16.341-14.455a8.835 8.835 0 0 1 -4.853 4.253 5.6 5.6 0 0 1 -2.619.281 51.008 51.008 0 0 0 1.445-5.884 3.582 3.582 0 0 1 2.82-1.371 1.5 1.5 0 0 0 .3-2.985 6.41 6.41 0 0 0 -2.5.356c.133-1.045.244-2.07.339-3.067a6.067 6.067 0 0 1 4.307.78c2.115 1.599 1.98 5.052.761 7.637z"/></svg>