<svg id="apple" enable-background="new 0 0 300 300" height="512" viewBox="0 0 300 300" width="512" xmlns="http://www.w3.org/2000/svg"><g><path d="m76 70c7.719 0 14-6.281 14-14s-6.281-14-14-14-14 6.281-14 14 6.281 14 14 14zm0-20c3.309 0 6 2.691 6 6s-2.691 6-6 6-6-2.691-6-6 2.691-6 6-6z"/><path d="m221.516 70.484c.781.781 1.805 1.172 2.828 1.172s2.047-.391 2.828-1.172l2.828-2.828 2.828 2.828c.781.781 1.805 1.172 2.828 1.172s2.047-.391 2.828-1.172c1.562-1.562 1.562-4.094 0-5.656l-2.828-2.828 2.828-2.828c1.562-1.562 1.562-4.094 0-5.656s-4.094-1.562-5.656 0l-2.828 2.828-2.828-2.828c-1.562-1.562-4.094-1.562-5.656 0s-1.562 4.094 0 5.656l2.828 2.828-2.828 2.828c-1.563 1.563-1.563 4.094 0 5.656z"/><path d="m232 99.47c-2.501 0-4.53 2.028-4.53 4.53 0 2.501 2.028 4.529 4.53 4.529s4.53-2.028 4.53-4.529c0-2.502-2.029-4.53-4.53-4.53z"/><path d="m48 104.529c2.501 0 4.53-2.028 4.53-4.529 0-2.502-2.028-4.53-4.53-4.53s-4.53 2.028-4.53 4.53c0 2.501 2.029 4.529 4.53 4.529z"/><path d="m117.776 178h-31.776c-2.211 0-4 1.791-4 4s1.789 4 4 4h128c2.211 0 4-1.791 4-4s-1.789-4-4-4h-31.757c9.703-7.052 17.178-18.419 19.863-32.16 2.434-12.455.641-24.994-5.051-35.307-5.82-10.547-15-17.521-25.848-19.643-5.506-1.073-11.178-.75-16.7.835 1.868-11.124 8.407-13.797 8.809-13.949 2.062-.719 3.172-2.965 2.477-5.043-.699-2.094-2.941-3.236-5.059-2.529-.521.174-12.144 4.277-14.357 21.826-5.803-1.819-11.785-2.271-17.584-1.14-10.848 2.121-20.027 9.096-25.848 19.643-5.691 10.312-7.484 22.852-5.051 35.307 2.687 13.75 10.171 25.11 19.882 32.16zm-7.827-63.602c4.656-8.438 11.895-13.998 20.375-15.656 5.91-1.152 12.109-.279 17.941 2.529 1.094.527 2.375.527 3.469 0 5.836-2.809 12.031-3.682 17.941-2.529 8.48 1.658 15.719 7.219 20.375 15.656 4.785 8.672 6.277 19.293 4.203 29.906-4.23 21.645-22.145 36.428-39.926 32.953-1.059-.207-2.098-.48-3.105-.805-.398-.127-.809-.191-1.223-.191s-.824.064-1.223.191c-1.008.324-2.047.598-3.102.805-17.828 3.48-35.703-11.311-39.93-32.953-2.072-10.613-.58-21.234 4.205-29.906z"/><path d="m118 134c2.211 0 4-1.791 4-4 0-12.58 12.422-15.977 12.984-16.123 2.137-.543 3.43-2.709 2.895-4.848-.535-2.143-2.711-3.449-4.848-2.91-6.582 1.647-19.031 8.754-19.031 23.881 0 2.209 1.789 4 4 4z"/><path d="m238 242h12c2.211 0 4-1.791 4-4s-1.789-4-4-4h-8v-4h8c2.211 0 4-1.791 4-4s-1.789-4-4-4h-8v-4h8c2.211 0 4-1.791 4-4s-1.789-4-4-4h-12c-2.211 0-4 1.791-4 4v24c0 2.209 1.789 4 4 4z"/><path d="m65.945 213.342c-.32-1.928-1.988-3.342-3.945-3.342h-8c-1.957 0-3.625 1.414-3.945 3.342l-4 24c-.363 2.18 1.109 4.24 3.289 4.604 2.18.367 4.238-1.109 4.602-3.287l.775-4.659h6.558l.776 4.658c.324 1.955 2.02 3.342 3.941 3.342.219 0 .438-.018.66-.055 2.18-.363 3.652-2.424 3.289-4.604zm-9.891 12.658 1.333-8h1.227l1.333 8z"/><path d="m98 242c2.211 0 4-1.791 4-4v-8h6.574c5.199 0 9.426-4.227 9.426-9.424v-1.152c0-5.197-4.227-9.424-9.426-9.424h-10.574c-2.211 0-4 1.791-4 4v24c0 2.209 1.789 4 4 4zm4-24h6.574c.785 0 1.426.639 1.426 1.424v1.152c0 .785-.641 1.424-1.426 1.424h-6.574z"/><path d="m156.574 210h-10.574c-2.211 0-4 1.791-4 4v24c0 2.209 1.789 4 4 4s4-1.791 4-4v-8h6.574c5.199 0 9.426-4.227 9.426-9.424v-1.152c0-5.197-4.227-9.424-9.426-9.424zm1.426 10.576c0 .785-.641 1.424-1.426 1.424h-6.574v-4h6.574c.785 0 1.426.639 1.426 1.424z"/><path d="m206 234h-8v-20c0-2.209-1.789-4-4-4s-4 1.791-4 4v24c0 2.209 1.789 4 4 4h12c2.211 0 4-1.791 4-4s-1.789-4-4-4z"/><path d="m266 194h-232c-2.211 0-4 1.791-4 4v56c0 2.209 1.789 4 4 4h232c2.211 0 4-1.791 4-4v-56c0-2.209-1.789-4-4-4zm-132 8h40v48h-40zm-8 48h-40v-48h40zm56-48h36v48h-36zm-144 0h40v48h-40zm224 48h-36v-48h36z"/></g></svg>